<svg width="18" height="18" viewBox="0 0 18 18" fill="none" xmlns="http://www.w3.org/2000/svg">
<path d="M0.818911 17.9993C0.711368 17.9997 0.604815 17.9788 0.505394 17.9378C0.405974 17.8968 0.315653 17.8365 0.239639 17.7604C0.0873425 17.6061 0.00195312 17.398 0.00195312 17.1811C0.00195313 16.9643 0.0873425 16.7562 0.239639 16.6019L16.6033 0.238234C16.7569 0.084601 16.9653 -0.00170898 17.1825 -0.00170898C17.3998 -0.00170898 17.6082 0.084601 17.7618 0.238234C17.9155 0.391866 18.0018 0.600237 18.0018 0.817506C18.0018 1.03478 17.9155 1.24315 17.7618 1.39678L1.39818 17.7604C1.32217 17.8365 1.23185 17.8968 1.13243 17.9378C1.03301 17.9788 0.926455 17.9997 0.818911 17.9993Z" fill="#282828"/>
<path d="M17.1813 17.9993C17.0737 17.9997 16.9672 17.9788 16.8677 17.9378C16.7683 17.8968 16.678 17.8365 16.602 17.7604L0.238356 1.39678C0.084723 1.24315 -0.00158692 1.03478 -0.00158691 0.817506C-0.00158691 0.600237 0.084723 0.391866 0.238356 0.238234C0.391988 0.084601 0.600359 -0.00170898 0.817629 -0.00170898C1.0349 -0.00170899 1.24327 0.084601 1.3969 0.238234L17.7605 16.6019C17.9128 16.7562 17.9982 16.9643 17.9982 17.1811C17.9982 17.398 17.9128 17.6061 17.7605 17.7604C17.6845 17.8365 17.5942 17.8968 17.4948 17.9378C17.3954 17.9788 17.2888 17.9997 17.1813 17.9993Z" fill="#282828"/>
</svg>
